<svg width="40" height="40" viewBox="0 0 40 40" fill="none" xmlns="http://www.w3.org/2000/svg">
<path fill-rule="evenodd" clip-rule="evenodd" d="M13.4167 15C13.3062 15 13.2002 15.0439 13.122 15.122C13.0439 15.2002 13 15.3062 13 15.4167C13 15.5272 13.0439 15.6332 13.122 15.7113C13.2002 15.7894 13.3062 15.8333 13.4167 15.8333H25.9167C26.0272 15.8333 26.1332 15.7894 26.2113 15.7113C26.2894 15.6332 26.3333 15.5272 26.3333 15.4167C26.3333 15.3062 26.2894 15.2002 26.2113 15.122C26.1332 15.0439 26.0272 15 25.9167 15H13.4167ZM25.9167 20.4167H13.4167C13.3062 20.4167 13.2002 20.3728 13.122 20.2946C13.0439 20.2165 13 20.1105 13 20C13 19.8895 13.0439 19.7835 13.122 19.7054C13.2002 19.6272 13.3062 19.5833 13.4167 19.5833H25.9167C26.0272 19.5833 26.1332 19.6272 26.2113 19.7054C26.2894 19.7835 26.3333 19.8895 26.3333 20C26.3333 20.1105 26.2894 20.2165 26.2113 20.2946C26.1332 20.3728 26.0272 20.4167 25.9167 20.4167ZM13 24.5833C13 24.4728 13.0439 24.3668 13.122 24.2887C13.2002 24.2106 13.3062 24.1667 13.4167 24.1667H25.9167C26.0272 24.1667 26.1332 24.2106 26.2113 24.2887C26.2894 24.3668 26.3333 24.4728 26.3333 24.5833C26.3333 24.6938 26.2894 24.7998 26.2113 24.878C26.1332 24.9561 26.0272 25 25.9167 25H13.4167C13.3062 25 13.2002 24.9561 13.122 24.878C13.0439 24.7998 13 24.6938 13 24.5833Z" fill="#ECECEC"/>
</svg>
